<?xml version="1.0" standalone="no"?>
<!DOCTYPE svg PUBLIC "-//W3C//DTD SVG 20010904//EN"
 "http://www.w3.org/TR/2001/REC-SVG-20010904/DTD/svg10.dtd">
<svg version="1.0" xmlns="http://www.w3.org/2000/svg"
 width="618.000000pt" height="161.000000pt" viewBox="0 0 618.000000 161.000000"
 preserveAspectRatio="xMidYMid meet">

<g transform="translate(0.000000,161.000000) scale(0.100000,-0.100000)"
fill="#000000" stroke="none">
<path d="M5586 456 l-46 -53 0 -172 c0 -169 0 -172 25 -197 l24 -24 272 2 272
3 21 28 c18 25 21 42 21 132 0 152 11 145 -240 145 l-202 0 -23 -25 c-13 -14
-27 -25 -32 -25 -14 0 -9 85 8 108 15 21 21 22 190 22 97 0 183 4 193 9 10 6
35 30 55 55 l37 46 -265 0 -264 0 -46 -54z m444 -291 l0 -45 -180 0 c-163 0
-180 2 -180 17 0 9 12 30 27 45 l27 28 153 0 153 0 0 -45z"/>
</g>
</svg>
