<?xml version="1.0" encoding="UTF-8"?>
<svg version="1.1" xmlns="http://www.w3.org/2000/svg" width="618" height="161">
<path d="M0 0 C0.87075668 -0.00910904 1.74151337 -0.01821808 2.63865662 -0.02760315 C4.46134682 -0.03135205 6.28432537 -0.00553702 8.10620117 0.04907227 C10.87541669 0.12120636 13.62352962 0.06999299 16.39257812 0.00585938 C29.92683201 -0.01443461 29.92683201 -0.01443461 34.77685547 4.03857422 C39.64521399 8.93887016 42.41959969 13.21437767 42.43301392 20.13818359 C42.427621 21.30559082 42.427621 21.30559082 42.42211914 22.49658203 C42.42226517 23.31617401 42.42241119 24.13576599 42.42256165 24.98019409 C42.42186349 27.69645815 42.41407563 30.41265413 42.40625 33.12890625 C42.40438548 35.00934817 42.40296173 36.88979058 42.40196228 38.77023315 C42.39813982 43.72521297 42.38831183 48.68016358 42.3772583 53.63513184 C42.36703836 58.6890422 42.36246341 63.74295728 42.35742188 68.796875 C42.34668933 78.71746283 42.32909471 88.63802129 42.30859375 98.55859375 C34.05859375 98.55859375 25.80859375 98.55859375 17.30859375 98.55859375 C17.30859375 88.98859375 17.30859375 79.41859375 17.30859375 69.55859375 C13.01859375 69.55859375 8.72859375 69.55859375 4.30859375 69.55859375 C4.30859375 79.12859375 4.30859375 88.69859375 4.30859375 98.55859375 C-3.94140625 98.55859375 -12.19140625 98.55859375 -20.69140625 98.55859375 C-20.94079119 87.68331775 -21.14221351 76.8099666 -21.26134014 65.93246841 C-21.31854128 60.88048605 -21.39600386 55.83057528 -21.52124023 50.77978516 C-21.64153654 45.89718313 -21.7066891 41.01656172 -21.73505592 36.13259125 C-21.75524587 34.27774645 -21.79467503 32.42299962 -21.85443687 30.56900787 C-22.1415049 21.2867054 -22.26230814 13.59197234 -15.72998047 6.4206543 C-10.9445584 1.73658607 -6.67876152 -0.22652205 0 0 Z M4.30859375 18.55859375 C4.30859375 29.77859375 4.30859375 40.99859375 4.30859375 52.55859375 C8.59859375 52.55859375 12.88859375 52.55859375 17.30859375 52.55859375 C17.30859375 41.33859375 17.30859375 30.11859375 17.30859375 18.55859375 C13.01859375 18.55859375 8.72859375 18.55859375 4.30859375 18.55859375 Z " fill="#000000" transform="translate(123.69140625,-1.55859375)"/>
<path d="M0 0 C8.37375 -0.226875 16.7475 -0.45375 25.375 -0.6875 C27.99872559 -0.78764404 30.62245117 -0.88778809 33.32568359 -0.9909668 C50.91838542 -1.37885238 50.91838542 -1.37885238 55.86035156 2.42724609 C61.03306291 7.51447434 63.11165294 12.38555086 63.24047852 19.49414062 C63.25997307 20.49460922 63.25997307 20.49460922 63.27986145 21.51528931 C63.40693418 28.51241994 63.46339855 35.51076337 63.51489258 42.50878906 C63.54156345 45.82262468 63.59018299 49.13500735 63.65844727 52.44824219 C63.74083929 56.45780774 63.78314468 60.46599799 63.79795647 64.47636414 C63.81013494 65.99779054 63.83600689 67.51917665 63.87640572 69.04011536 C64.1024077 78.00281202 63.47748263 84.19540886 57.11192322 90.99206543 C56.41498856 91.65468384 55.71805389 92.31730225 55 93 C54.35932083 93.73800842 53.71864166 94.47601685 53.05854797 95.23638916 C50.48285208 97.44305389 49.21872976 97.48731416 45.86425781 97.45410156 C44.31182373 97.45337646 44.31182373 97.45337646 42.72802734 97.45263672 C41.10695068 97.42194092 41.10695068 97.42194092 39.453125 97.390625 C37.95531494 97.38458252 37.95531494 97.38458252 36.42724609 97.37841797 C32.70131017 97.35750797 28.97563642 97.3016624 25.25 97.25 C16.9175 97.1675 8.585 97.085 0 97 C0 64.99 0 32.98 0 0 Z M25 17 C25 37.79 25 58.58 25 80 C29.29 80 33.58 80 38 80 C38 59.21 38 38.42 38 17 C33.71 17 29.42 17 25 17 Z " fill="#000000" transform="translate(327,0)"/>
<path d="M0 0 C8.25 0 16.5 0 25 0 C25 26.4 25 52.8 25 80 C29.29 80 33.58 80 38 80 C38 53.6 38 27.2 38 0 C46.25 0 54.5 0 63 0 C63.18121374 10.64909486 63.32777731 21.29715497 63.41449738 31.94744682 C63.45613288 36.89361019 63.51254466 41.83865818 63.60351562 46.78417969 C63.6908623 51.56293716 63.73836155 56.34062647 63.75901794 61.120121 C63.77372519 62.93739756 63.80244614 64.75461993 63.84584045 66.57143784 C64.21249748 82.56831796 64.21249748 82.56831796 59.20117188 88.94580078 C57.84491339 90.34148631 56.44529823 91.69673941 55 93 C54.33491928 93.73294281 53.66983856 94.46588562 52.98460388 95.22103882 C49.83871629 98.04095263 46.27030091 97.57106703 42.25390625 97.53125 C41.40577866 97.5350769 40.55765106 97.53890381 39.68382263 97.54284668 C37.89263724 97.54556486 36.10141209 97.53821019 34.31030273 97.52148438 C31.57510356 97.50009854 28.84253877 97.52127405 26.10742188 97.546875 C24.36457756 97.54423119 22.62173487 97.5391051 20.87890625 97.53125 C19.65682213 97.54339539 19.65682213 97.54339539 18.41004944 97.55578613 C14.82290929 97.49685749 12.54758424 97.30768095 9.38256836 95.52929688 C8.5963208 94.69462891 7.81007324 93.85996094 7 93 C6.39546997 92.4751149 5.79093994 91.9502298 5.16809082 91.40943909 C-0.44029088 85.74837393 -0.75857029 80.33314007 -0.81250095 72.76677036 C-0.79247046 70.09241263 -0.73862784 67.41994133 -0.68359375 64.74609375 C-0.67052091 62.87567506 -0.66056471 61.00523222 -0.65357971 59.13478088 C-0.62698652 54.23677161 -0.55834122 49.34023978 -0.48065186 44.44281006 C-0.40875254 39.43538392 -0.37701144 34.42771658 -0.34179688 29.41992188 C-0.26695959 19.61253115 -0.14394052 9.80662018 0 0 Z " fill="#000000" transform="translate(395,0)"/>
<path d="M0 0 C0.89060623 -0.01377182 1.78121246 -0.02754364 2.69880676 -0.04173279 C4.58763393 -0.06503609 6.47654389 -0.08228554 8.36547852 -0.09399414 C11.24195005 -0.12083637 14.11469526 -0.19568885 16.99023438 -0.27148438 C18.82679819 -0.28814953 20.66339108 -0.30191326 22.5 -0.3125 C23.35442184 -0.34235489 24.20884369 -0.37220978 25.0891571 -0.40296936 C29.88603363 -0.36803798 32.45162353 0.26766284 35.9309082 3.67602539 C37.00047789 4.91483556 38.05264168 6.16901203 39.08203125 7.44140625 C39.87834961 8.26535889 40.67466797 9.08931152 41.49511719 9.93823242 C43.61024979 13.27461004 43.53952313 15.56375807 43.47265625 19.4921875 C43.46699646 20.15099411 43.46133667 20.80980072 43.45550537 21.48857117 C43.43324364 23.57777841 43.38307455 25.66522398 43.33203125 27.75390625 C43.31195269 29.17640739 43.29370429 30.59893562 43.27734375 32.02148438 C43.23682457 35.49600418 43.15853742 38.96675103 43.08203125 42.44140625 C34.83203125 42.44140625 26.58203125 42.44140625 18.08203125 42.44140625 C18.08203125 34.19140625 18.08203125 25.94140625 18.08203125 17.44140625 C13.79203125 17.44140625 9.50203125 17.44140625 5.08203125 17.44140625 C5.08203125 38.23140625 5.08203125 59.02140625 5.08203125 80.44140625 C9.37203125 80.44140625 13.66203125 80.44140625 18.08203125 80.44140625 C18.08203125 71.86140625 18.08203125 63.28140625 18.08203125 54.44140625 C26.33203125 54.44140625 34.58203125 54.44140625 43.08203125 54.44140625 C44.77727001 84.05157668 44.77727001 84.05157668 39.60302734 90.79394531 C34.08476607 96.56505451 30.40115405 97.6310095 22.63671875 97.8203125 C19.99384266 97.87530474 17.3512234 97.92102123 14.70800781 97.95629883 C12.88441084 97.98785735 11.06101656 98.03552746 9.23828125 98.09985352 C-5.84245287 98.62455566 -5.84245287 98.62455566 -10.80371094 95.79638672 C-12.84839394 93.77966763 -14.3563299 91.84415129 -15.91796875 89.44140625 C-16.59539627 88.71318161 -17.27282379 87.98495697 -17.97077942 87.23466492 C-20.39163812 83.76192375 -20.45175875 81.73783876 -20.51489258 77.53076172 C-20.52993332 76.8551973 -20.54497406 76.17963287 -20.56047058 75.4835968 C-20.60342724 73.25832523 -20.61623552 71.03424645 -20.625 68.80859375 C-20.64041047 67.25024997 -20.65626129 65.69191049 -20.67253113 64.13357544 C-20.70096836 60.86694545 -20.71239938 57.60073164 -20.71411133 54.33398438 C-20.71927551 50.17377889 -20.78410659 46.01688337 -20.86439991 41.85754204 C-20.91673925 38.63665905 -20.92767251 35.41655472 -20.92761803 32.1952858 C-20.93413059 30.66356199 -20.95517957 29.13182091 -20.99180031 27.60052109 C-21.20442737 17.87269269 -19.93364585 11.75232394 -13.04618835 4.46536255 C-11.99271965 3.46350418 -11.99271965 3.46350418 -10.91796875 2.44140625 C-7.83624402 -0.64031848 -4.14259748 0.05575966 0 0 Z " fill="#000000" transform="translate(54.91796875,-0.44140625)"/>
<path d="M0 0 C7.92 0 15.84 0 24 0 C24.02578125 2.62453125 24.0515625 5.2490625 24.078125 7.953125 C24.11655092 10.4983182 24.16170922 13.04330918 24.20751953 15.58837891 C24.23572397 17.35553311 24.25694118 19.12281334 24.27099609 20.89013672 C24.29243358 23.43262222 24.33908503 25.97359338 24.390625 28.515625 C24.39185364 29.30430969 24.39308228 30.09299438 24.39434814 30.90557861 C24.49056944 34.51884053 24.70257751 36.60582012 26.90917969 39.53027344 C28.8552709 41.19768267 28.8552709 41.19768267 31.0625 41 C33.66769841 39.65538147 34.5260182 38.56384582 36 36 C36.32481069 33.17629288 36.48816805 30.56053312 36.51171875 27.734375 C36.52966995 26.94097717 36.54762115 26.14757935 36.56611633 25.33013916 C36.62016926 22.80347969 36.65409812 20.27700856 36.6875 17.75 C36.7206776 16.03382799 36.75516767 14.31768081 36.79101562 12.6015625 C36.87835776 8.40101534 36.93846549 4.20132139 37 0 C44.59 0 52.18 0 60 0 C60.1844101 6.24689213 60.34337541 12.48423621 60.43945312 18.73168945 C60.47951955 20.85310976 60.53399119 22.97431143 60.60351562 25.0949707 C61.23989374 45.01454149 61.23989374 45.01454149 56.40625 50.37890625 C54.9723459 51.62713301 53.50333644 52.83632885 52 54 C46.36750341 59.19150631 44.42143401 63.6697598 44.09765625 71.31640625 C44.02595168 74.39986894 44.03918247 77.47851674 44.0625 80.5625 C44.04937103 82.15953418 44.0331212 83.75654591 44.01367188 85.35351562 C43.96731298 89.23758517 43.98507757 93.11377299 44 97 C35.09 97 26.18 97 17 97 C17.020625 94.65003906 17.04125 92.30007812 17.0625 89.87890625 C17.05526003 87.57507853 17.03436959 85.27174454 17.01220703 82.96801758 C17.00415082 81.38046087 17.01004523 79.79276425 17.03076172 78.20532227 C17.37716907 67.33214737 17.37716907 67.33214737 12.4375 58.02734375 C10.25863953 55.94615803 7.99807394 53.99835205 5.70898438 52.03979492 C-0.01818116 46.28502085 -0.69533432 41.20479517 -0.78125 33.3984375 C-0.75820985 29.38719793 -0.63509199 25.38379104 -0.5 21.375 C-0.45981962 19.30085001 -0.4233269 17.22662512 -0.390625 15.15234375 C-0.30982316 10.09818875 -0.15329675 5.0545345 0 0 Z " fill="#000000" transform="translate(519,0)"/>
<path d="M0 0 C5.94 0 11.88 0 18 0 C18 11.22 18 22.44 18 34 C29.22 34 40.44 34 52 34 C52.495 40.435 52.495 40.435 53 47 C63.6311013 23.55833563 63.6311013 23.55833563 74 0 C83.57 0 93.14 0 103 0 C105.33155922 5.04871258 107.66171342 10.09802962 109.98852539 15.14892578 C110.77810532 16.86185279 111.56845048 18.57442731 112.35961914 20.28662109 C125 47.64612982 125 47.64612982 125 52 C118.4 52 111.8 52 105 52 C101 44 101 44 101 42 C92.42 42 83.84 42 75 42 C74.67 43.65 74.34 45.3 74 47 C73.34 48.65 72.68 50.3 72 52 C48.24 52 24.48 52 0 52 C0 34.84 0 17.68 0 0 Z M86 14 C84.35 18.62 82.7 23.24 81 28 C85.62 28 90.24 28 95 28 C93.35 23.38 91.7 18.76 90 14 C88.68 14 87.36 14 86 14 Z " fill="#000000" transform="translate(67,109)"/>
<path d="M0 0 C9.24 0 18.48 0 28 0 C28 25.74 28 51.48 28 78 C33.94 78 39.88 78 46 78 C46 84.27 46 90.54 46 97 C30.82 97 15.64 97 0 97 C0 64.99 0 32.98 0 0 Z " fill="#000000" transform="translate(170,0)"/>
<path d="M0 0 C17.49 0 34.98 0 53 0 C53 6.6 53 13.2 53 20 C48.38 20 43.76 20 39 20 C39 45.41 39 70.82 39 97 C30.75 97 22.5 97 14 97 C14 71.59 14 46.18 14 20 C9.38 20 4.76 20 0 20 C0 13.4 0 6.8 0 0 Z " fill="#000000" transform="translate(462,0)"/>
<path d="M0 0 C8.91 0 17.82 0 27 0 C27 25.74 27 51.48 27 78 C33.27 78 39.54 78 46 78 C46 84.27 46 90.54 46 97 C30.82 97 15.64 97 0 97 C0 64.99 0 32.98 0 0 Z " fill="#000000" transform="translate(220,0)"/>
<path d="M0 0 C7.46938792 -0.06296393 14.93781114 -0.12306164 22.40723419 -0.15525055 C25.88578175 -0.17107253 29.36410893 -0.19220515 32.8425293 -0.22631836 C36.83644712 -0.26524063 40.83013263 -0.27972629 44.82421875 -0.29296875 C46.06709152 -0.30845261 47.30996429 -0.32393646 48.59049988 -0.33988953 C49.75132584 -0.34011612 50.91215179 -0.34034271 52.1081543 -0.34057617 C53.63704536 -0.35056892 53.63704536 -0.35056892 55.19682312 -0.36076355 C58.47460171 0.06108034 60.34121162 1.06922956 63 3 C65.84132706 7.46494253 65.42104383 12.88852787 65 18 C64.03320688 21.2456626 62.89089175 23.16366238 61 26 C61.97453125 26.74443359 61.97453125 26.74443359 62.96875 27.50390625 C65.70866755 30.8708434 65.59082947 33.78583624 65.5 37.9375 C65.52320312 38.99227539 65.52320312 38.99227539 65.546875 40.06835938 C65.51960416 43.7056071 65.09906811 45.84195278 63.15625 48.94140625 C59.73905239 52.20383948 56.86252483 52.12334604 52.33520508 52.11352539 C51.17422806 52.11344986 50.01325104 52.11337433 48.8170929 52.11329651 C47.56389755 52.10813522 46.31070221 52.10297394 45.01953125 52.09765625 C43.73640549 52.0962413 42.45327972 52.09482635 41.13127136 52.09336853 C37.72329759 52.08955405 34.31536657 52.07973291 30.90740967 52.06866455 C27.42851348 52.05842744 23.94961016 52.05381117 20.47070312 52.04882812 C13.64709768 52.0386406 6.82360958 52.01906628 0 52 C0 34.84 0 17.68 0 0 Z M18 13 C18 15.31 18 17.62 18 20 C27.24 20 36.48 20 46 20 C46 17.69 46 15.38 46 13 C36.76 13 27.52 13 18 13 Z M18 32 C18 33.98 18 35.96 18 38 C27.57 38 37.14 38 47 38 C47 36.02 47 34.04 47 32 C37.43 32 27.86 32 18 32 Z " fill="#000000" transform="translate(0,109)"/>
<path d="M0 0 C1.07113541 -0.00938095 2.14227081 -0.0187619 3.24586487 -0.02842712 C4.97255653 -0.01157616 4.97255653 -0.01157616 6.73413086 0.00561523 C8.51284828 0.00343239 8.51284828 0.00343239 10.32749939 0.00120544 C12.83326679 0.00286498 15.33904432 0.0144322 17.84472656 0.03515625 C21.68785705 0.06412518 25.52960994 0.05576239 29.37280273 0.04272461 C31.80575217 0.04896138 34.23869724 0.05735183 36.67163086 0.06811523 C37.82478287 0.0651796 38.97793488 0.06224396 40.16603088 0.05921936 C41.23401413 0.07190353 42.30199738 0.08458771 43.40234375 0.09765625 C44.81321007 0.10576073 44.81321007 0.10576073 46.25257874 0.11402893 C49.067956 0.57187846 49.91684022 1.27485669 51.63647461 3.50170898 C52.89885192 6.0264636 52.73503865 7.81371364 52.69897461 10.62670898 C52.68995117 11.53678711 52.68092773 12.44686523 52.67163086 13.38452148 C52.6600293 14.08319336 52.64842773 14.78186523 52.63647461 15.50170898 C50.51210413 16.00437693 48.38695735 16.50376509 46.26147461 17.00170898 C45.07811523 17.28014648 43.89475586 17.55858398 42.67553711 17.84545898 C39.63647461 18.50170898 39.63647461 18.50170898 37.63647461 18.50170898 C37.63647461 17.51170898 37.63647461 16.52170898 37.63647461 15.50170898 C27.07647461 15.50170898 16.51647461 15.50170898 5.63647461 15.50170898 C5.63647461 16.16170898 5.63647461 16.82170898 5.63647461 17.50170898 C6.19294678 17.52152832 6.74941895 17.54134766 7.32275391 17.56176758 C17.97943161 17.95617687 28.63092061 18.45925502 39.26147461 19.31420898 C40.14279053 19.37205566 41.02410645 19.42990234 41.93212891 19.48950195 C45.73825559 19.82416383 48.01683793 20.0537673 51.15991211 22.32592773 C54.15959961 26.74610217 53.81922727 31.23137597 53.82397461 36.43920898 C53.8362207 37.14239258 53.8484668 37.84557617 53.86108398 38.57006836 C53.8725381 42.64391635 53.74302891 45.9654812 51.63647461 49.50170898 C46.85429702 53.60506973 41.3460725 52.93454194 35.38647461 52.90014648 C34.29560547 52.90301666 33.20473633 52.90588684 32.08081055 52.90884399 C29.77774536 52.91088265 27.47466278 52.90536671 25.17163086 52.89282227 C21.64910109 52.87676654 18.12771875 52.89267846 14.60522461 52.91186523 C12.36563875 52.90988277 10.1260536 52.90603903 7.88647461 52.90014648 C6.83427734 52.90621918 5.78208008 52.91229187 4.69799805 52.91854858 C-4.4239634 52.83093073 -4.4239634 52.83093073 -8.36352539 49.50170898 C-11.69995197 44.90663046 -10.48058874 38.88662303 -10.36352539 33.50170898 C-5.41352539 33.50170898 -0.46352539 33.50170898 4.63647461 33.50170898 C4.63647461 34.82170898 4.63647461 36.14170898 4.63647461 37.50170898 C15.52647461 37.50170898 26.41647461 37.50170898 37.63647461 37.50170898 C37.63647461 36.51170898 37.63647461 35.52170898 37.63647461 34.50170898 C36.74847168 34.47197998 36.74847168 34.47197998 35.8425293 34.44165039 C25.03344157 34.06468606 14.22735507 33.60587499 3.44897461 32.68920898 C2.20422363 32.60243896 2.20422363 32.60243896 0.93432617 32.51391602 C0.16185547 32.44156738 -0.61061523 32.36921875 -1.40649414 32.29467773 C-2.41232544 32.20996216 -2.41232544 32.20996216 -3.43847656 32.12353516 C-6.26530434 31.2104178 -7.54501628 29.82388172 -9.36352539 27.50170898 C-9.88110352 24.99975586 -9.88110352 24.99975586 -9.89477539 22.22045898 C-9.89993164 21.21370117 -9.90508789 20.20694336 -9.91040039 19.16967773 C-9.89493164 18.12424805 -9.87946289 17.07881836 -9.86352539 16.00170898 C-9.87899414 14.9562793 -9.89446289 13.91084961 -9.91040039 12.83374023 C-9.90524414 11.82698242 -9.90008789 10.82022461 -9.89477539 9.78295898 C-9.89026367 8.86579102 -9.88575195 7.94862305 -9.88110352 7.00366211 C-8.75414358 1.5559803 -5.19419286 0.00091686 0 0 Z " fill="#000000" transform="translate(482.363525390625,108.498291015625)"/>
<path d="M0 0 C1.12812103 -0.0127597 2.25624207 -0.02551941 3.41854858 -0.03866577 C5.25445053 -0.04200424 5.25445053 -0.04200424 7.12744141 -0.04541016 C9.00672836 -0.05539536 9.00672836 -0.05539536 10.92398071 -0.06558228 C13.5788591 -0.07572478 16.23332823 -0.08126209 18.88818359 -0.08007812 C22.28695804 -0.07987505 25.68489519 -0.10715849 29.0834713 -0.14162254 C32.32726338 -0.1692387 35.57104768 -0.16804093 38.81494141 -0.17041016 C40.64477066 -0.19196671 40.64477066 -0.19196671 42.51156616 -0.21395874 C43.64599152 -0.20780548 44.78041687 -0.20165222 45.94921875 -0.1953125 C47.44574478 -0.19958755 47.44574478 -0.19958755 48.97250366 -0.20394897 C52.34176754 0.42915802 53.50036386 1.63538751 55.60400391 4.29052734 C56.87385973 8.1000948 56.80546441 11.71286111 56.84228516 15.68505859 C56.8503569 16.51003342 56.85842865 17.33500824 56.866745 18.1849823 C56.88056964 19.93083606 56.89129904 21.67671667 56.89916992 23.42260742 C56.91637363 26.08288201 56.96027164 28.74191042 57.00439453 31.40185547 C57.01452295 33.10041407 57.02303859 34.7989832 57.02978516 36.49755859 C57.04729324 37.28838333 57.06480133 38.07920807 57.08283997 38.89399719 C57.06237314 44.14544606 56.08403462 47.12299318 52.60400391 51.29052734 C50.08261429 52.55122215 48.32146075 52.43115546 45.49926758 52.45166016 C44.43443649 52.4612677 43.36960541 52.47087524 42.27250671 52.48077393 C41.11733047 52.4850238 39.96215424 52.48927368 38.77197266 52.49365234 C37.58807449 52.49935242 36.40417633 52.50505249 35.18440247 52.51092529 C32.67510881 52.52038556 30.16580268 52.52691333 27.65649414 52.53076172 C23.81781299 52.54046087 19.97966853 52.57147285 16.14111328 52.60302734 C13.70556959 52.60955784 11.27002207 52.61480813 8.83447266 52.61865234 C7.68536911 52.63099915 6.53626556 52.64334595 5.3523407 52.65606689 C4.27805313 52.6530658 3.20376556 52.6500647 2.09692383 52.64697266 C1.1547551 52.65061829 0.21258636 52.65426392 -0.75813293 52.65802002 C-3.94584463 52.21392545 -5.81495525 51.1887118 -8.39599609 49.29052734 C-10.58957968 44.73694753 -10.70310527 40.22904298 -10.69677734 35.25927734 C-10.70106247 34.5051355 -10.7053476 33.75099365 -10.70976257 32.97399902 C-10.71547862 31.38729858 -10.71602634 29.80057195 -10.71166992 28.21386719 C-10.7085053 25.79755728 -10.73201769 23.3824679 -10.75732422 20.96630859 C-10.75959718 19.41813304 -10.76030072 17.86995423 -10.75927734 16.32177734 C-10.76848709 15.60598511 -10.77769684 14.89019287 -10.78718567 14.15270996 C-10.71437547 6.19338342 -8.43929915 0.06459017 0 0 Z M8.60400391 16.29052734 C8.60400391 22.56052734 8.60400391 28.83052734 8.60400391 35.29052734 C18.50400391 35.29052734 28.40400391 35.29052734 38.60400391 35.29052734 C38.62462891 32.34115234 38.64525391 29.39177734 38.66650391 26.35302734 C38.67560791 25.42240479 38.68471191 24.49178223 38.6940918 23.53295898 C38.69658936 22.80455811 38.69908691 22.07615723 38.70166016 21.32568359 C38.70689697 20.57681885 38.71213379 19.8279541 38.7175293 19.05639648 C38.79742143 17.26384995 38.79742143 17.26384995 37.60400391 16.29052734 C35.45841564 16.20277129 33.30995969 16.18357515 31.16259766 16.19287109 C29.85742188 16.19609375 28.55224609 16.19931641 27.20751953 16.20263672 C25.81884701 16.21099333 24.43017513 16.21945829 23.04150391 16.22802734 C21.64892735 16.23304068 20.25634909 16.23760388 18.86376953 16.24169922 C15.4438294 16.25353292 12.02391141 16.27146904 8.60400391 16.29052734 Z " fill="#000000" transform="translate(347.39599609375,108.70947265625)"/>
<path d="M0 0 C1.10091476 0.00022659 2.20182953 0.00045319 3.33610535 0.00068665 C4.52367935 0.0161705 5.71125336 0.03165436 6.93481445 0.04760742 C8.15135208 0.05185226 9.36788971 0.05609711 10.62129211 0.06047058 C14.51378341 0.07728766 18.40576041 0.11494659 22.2980957 0.15307617 C24.93415594 0.16811904 27.57022429 0.18180813 30.20629883 0.1940918 C36.6745738 0.22720118 43.14254801 0.27743113 49.6105957 0.34057617 C42.85433863 10.67975225 42.85433863 10.67975225 37.6105957 13.34057617 C31.64370314 14.28417431 25.76299346 14.23490428 19.7355957 14.15307617 C17.31322641 14.14706593 14.89130186 14.15082338 12.46896362 14.16423035 C10.96873001 14.16972303 9.4683835 14.16245068 7.96829224 14.1410675 C6.18117018 14.13385244 4.39422845 14.22872124 2.6105957 14.34057617 C0.19937711 16.29691593 0.19937711 16.29691593 0.4855957 19.96557617 C0.5268457 21.07932617 0.5680957 22.19307617 0.6105957 23.34057617 C1.31539062 22.36701172 1.31539062 22.36701172 2.03442383 21.3737793 C5.82182707 18.38463087 9.13121206 18.76527911 13.8293457 18.80932617 C15.17168274 18.80358582 15.17168274 18.80358582 16.5411377 18.79772949 C18.43067552 18.79501097 20.32025102 18.80236801 22.2097168 18.8190918 C25.1007076 18.84050294 27.98921337 18.81928883 30.88012695 18.79370117 C32.71737202 18.79634446 34.55461554 18.80146946 36.3918457 18.80932617 C37.25547729 18.80122925 38.11910889 18.79313232 39.00891113 18.78479004 C42.794806 18.84389449 44.95801649 18.90333245 48.15576172 21.04589844 C49.89371601 23.78713562 50.11326371 25.35527905 50.10668945 28.58666992 C50.10733398 29.58891602 50.10797852 30.59116211 50.10864258 31.6237793 C50.08866211 32.66469727 50.06868164 33.70561523 50.0480957 34.77807617 C50.05518555 35.81512695 50.06227539 36.85217773 50.06958008 37.9206543 C49.99002536 47.44886133 49.99002536 47.44886133 46.6105957 51.34057617 C44.06607591 52.61283607 42.24696802 52.48838282 39.39819336 52.51757812 C38.31011383 52.53041336 37.2220343 52.5432486 36.10098267 52.55647278 C34.92079559 52.56385971 33.74060852 52.57124664 32.5246582 52.57885742 C31.31619232 52.58692917 30.10772644 52.59500092 28.86264038 52.60331726 C26.30207763 52.61716612 23.74149635 52.62788467 21.1809082 52.63574219 C17.25867942 52.65297475 13.33728896 52.69685779 9.4152832 52.7409668 C6.93091442 52.75109159 4.44653845 52.75960835 1.9621582 52.76635742 C0.78601959 52.78386551 -0.39011902 52.8013736 -1.60189819 52.81941223 C-3.24347397 52.81502388 -3.24347397 52.81502388 -4.91821289 52.81054688 C-5.88036713 52.81641312 -6.84252136 52.82227936 -7.83383179 52.82832336 C-11.12858138 52.19949955 -12.29128437 50.8960817 -14.3894043 48.34057617 C-16.71857299 43.6822388 -15.78516936 36.84641089 -15.84936523 31.67553711 C-15.87588799 30.04600497 -15.91672117 28.41663797 -15.97241211 26.7878418 C-16.48798049 11.51956379 -16.48798049 11.51956379 -12.0456543 6.41088867 C-10.85989552 5.34940292 -9.64247309 4.32169517 -8.3894043 3.34057617 C-7.9682988 2.82342545 -7.5471933 2.30627472 -7.11332703 1.77345276 C-4.70735685 -0.22632268 -3.10197081 -0.02129499 0 0 Z M1.17602539 34.17749023 C-0.68254336 36.30061202 -0.68254336 36.30061202 -0.3894043 39.34057617 C10.8305957 39.34057617 22.0505957 39.34057617 33.6105957 39.34057617 C33.6105957 37.03057617 33.6105957 34.72057617 33.6105957 32.34057617 C29.41144263 32.24150359 25.21291318 32.16901445 21.01293945 32.12084961 C19.58508449 32.10076635 18.15731146 32.07349365 16.72973633 32.03881836 C14.67419202 31.99014948 12.61973715 31.9675765 10.5637207 31.94995117 C9.32783203 31.92900391 8.09194336 31.90805664 6.81860352 31.88647461 C3.5383729 32.08657512 3.5383729 32.08657512 1.17602539 34.17749023 Z " fill="#EE6A0A" transform="translate(568.389404296875,108.659423828125)"/>
<path d="M0 0 C1.20422104 -0.00241196 2.40844208 -0.00482391 3.64915466 -0.00730896 C6.19183652 -0.00633047 8.73453967 0.00706324 11.27709961 0.03198242 C15.17309735 0.06631376 19.06683041 0.05263301 22.96289062 0.03320312 C25.43360342 0.04010073 27.90431036 0.04977232 30.375 0.0625 C32.12509117 0.0550602 32.12509117 0.0550602 33.91053772 0.04747009 C35.53758888 0.07122459 35.53758888 0.07122459 37.19750977 0.09545898 C38.15061539 0.10165756 39.10372101 0.10785614 40.08570862 0.11424255 C43.37174461 0.78128261 44.55090643 2.04146993 46.62109375 4.62890625 C47.82803196 8.24972088 47.72891454 11.55397815 47.68359375 15.31640625 C47.66296875 17.72953125 47.64234375 20.14265625 47.62109375 22.62890625 C41.68109375 22.62890625 35.74109375 22.62890625 29.62109375 22.62890625 C29.29109375 20.97890625 28.96109375 19.32890625 28.62109375 17.62890625 C14.76109375 17.13390625 14.76109375 17.13390625 0.62109375 16.62890625 C0.62109375 23.22890625 0.62109375 29.82890625 0.62109375 36.62890625 C9.86109375 36.29890625 19.10109375 35.96890625 28.62109375 35.62890625 C28.95109375 33.97890625 29.28109375 32.32890625 29.62109375 30.62890625 C35.56109375 30.62890625 41.50109375 30.62890625 47.62109375 30.62890625 C47.68296875 33.00078125 47.74484375 35.37265625 47.80859375 37.81640625 C47.84956177 38.92278442 47.84956177 38.92278442 47.89135742 40.05151367 C47.94682767 44.46825798 47.34944381 47.15010092 44.62109375 50.62890625 C41.31580918 52.8324293 40.25318627 52.89160746 36.40283203 52.93530273 C35.33807648 52.95129013 34.27332092 52.96727753 33.17630005 52.98374939 C32.0262851 52.98911209 30.87627014 52.99447479 29.69140625 53 C27.91768143 53.01354271 27.91768143 53.01354271 26.10812378 53.02735901 C23.60482318 53.04187697 21.10148451 53.05075206 18.59814453 53.05444336 C14.76790429 53.06633852 10.93927505 53.11551199 7.109375 53.16601562 C4.67839329 53.17547965 2.24740167 53.18271478 -0.18359375 53.1875 C-1.32956024 53.20703232 -2.47552673 53.22656464 -3.65621948 53.24668884 C-8.42125767 53.21964964 -11.46710577 53.17846095 -15.59960938 50.68774414 C-18.0761181 46.4303103 -18.09893105 42.97919528 -18.04296875 38.12890625 C-18.04775238 37.21560547 -18.05253601 36.30230469 -18.0574646 35.36132812 C-18.06085942 33.43487826 -18.05168619 31.50837046 -18.03076172 29.58203125 C-18.00398906 26.63801277 -18.03052247 23.69780655 -18.0625 20.75390625 C-18.05919583 18.87889786 -18.05278943 17.00389183 -18.04296875 15.12890625 C-18.0530899 14.25169922 -18.06321106 13.37449219 -18.07363892 12.47070312 C-17.99669425 8.44617756 -17.6558263 6.10736872 -15.61108398 2.57446289 C-10.57604656 -0.45629572 -5.76987955 -0.06568048 0 0 Z " fill="#000000" transform="translate(209.37890625,108.37109375)"/>
<path d="M0 0 C7.61689516 -0.06293028 15.23284764 -0.12303174 22.84977722 -0.15525055 C26.3968723 -0.17108523 29.94375194 -0.19224141 33.49072266 -0.22631836 C37.56154452 -0.26518288 41.63213861 -0.27971574 45.703125 -0.29296875 C46.97303284 -0.30845261 48.24294067 -0.32393646 49.55133057 -0.33988953 C51.32271393 -0.34022942 51.32271393 -0.34022942 53.12988281 -0.34057617 C54.16912903 -0.34723801 55.20837524 -0.35389984 56.27911377 -0.36076355 C59.41565472 0.05511185 60.75807823 0.79695537 63 3 C64.75593815 8.26781444 64.26951299 13.86120007 64.3125 19.375 C64.35600586 21.22351563 64.35600586 21.22351563 64.40039062 23.109375 C64.40876953 24.29789063 64.41714844 25.48640625 64.42578125 26.7109375 C64.44036377 27.79681152 64.45494629 28.88268555 64.4699707 30.00146484 C63.85555931 33.9215691 63.05953739 35.44381621 60 38 C56.87053101 38.67872552 53.82985371 38.58221471 50.640625 38.48828125 C49.73624695 38.48120651 48.8318689 38.47413177 47.90008545 38.46684265 C45.01587671 38.43888765 42.13362035 38.37614813 39.25 38.3125 C37.29299682 38.28741851 35.33596316 38.26460508 33.37890625 38.24414062 C28.585187 38.18905739 23.79292432 38.1027778 19 38 C19 42.29 19 46.58 19 51 C12.73 51 6.46 51 0 51 C0 34.17 0 17.34 0 0 Z M19 15 C19 17.64 19 20.28 19 23 C27.91 23 36.82 23 46 23 C46 20.36 46 17.72 46 15 C37.09 15 28.18 15 19 15 Z " fill="#000000" transform="translate(406,109)"/>
<path d="M0 0 C6.27 0 12.54 0 19 0 C19 5.61 19 11.22 19 17 C25.01457476 12.7100241 25.01457476 12.7100241 29.9453125 7.30859375 C33.20607656 2.95057639 35.45615783 0.39013609 40.88769531 -0.44287109 C48.27036224 -0.87554289 55.63107744 -0.54740568 63 0 C58.18132753 5.80891746 52.98743592 11.13065552 47.625 16.4375 C46.79355469 17.26443359 45.96210938 18.09136719 45.10546875 18.94335938 C43.0725896 20.96455531 41.03740037 22.98336335 39 25 C40.31270914 27.90221328 41.71898982 29.96712292 43.9765625 32.20703125 C44.85417236 33.08246582 44.85417236 33.08246582 45.74951172 33.97558594 C46.36842285 34.58176758 46.98733398 35.18794922 47.625 35.8125 C48.25293457 36.43543945 48.88086914 37.05837891 49.52783203 37.70019531 C53.45442768 41.56909157 57.45952662 45.28932287 61.7421875 48.765625 C62.15726562 49.17296875 62.57234375 49.5803125 63 50 C63 50.66 63 51.32 63 52 C42.45091612 54.55634536 42.45091612 54.55634536 35.29394531 50.44580078 C30.71533202 46.698904 26.94067667 42.31793266 23.41259766 37.58227539 C21.98437332 35.71862935 21.98437332 35.71862935 19 35 C19 40.61 19 46.22 19 52 C16.02077407 52.02683987 13.04178705 52.04676037 10.0625 52.0625 C9.21236328 52.07087891 8.36222656 52.07925781 7.48632812 52.08789062 C6.67744141 52.09111328 5.86855469 52.09433594 5.03515625 52.09765625 C4.2862915 52.10289307 3.53742676 52.10812988 2.76586914 52.11352539 C1 52 1 52 0 51 C-0.09333705 49.40389018 -0.11745372 47.80366572 -0.11352539 46.20483398 C-0.11344986 45.18385117 -0.11337433 44.16286835 -0.11329651 43.11094666 C-0.10813522 42.0005452 -0.10297394 40.89014374 -0.09765625 39.74609375 C-0.0962413 38.61551041 -0.09482635 37.48492706 -0.09336853 36.32008362 C-0.08775019 32.69252935 -0.07519458 29.06503576 -0.0625 25.4375 C-0.05748736 22.98502693 -0.05292405 20.5325529 -0.04882812 18.08007812 C-0.0377748 12.05336187 -0.02049788 6.02669124 0 0 Z " fill="#000000" transform="translate(259,109)"/>
<path d="M0 0 C0.91652344 -0.00515625 1.83304687 -0.0103125 2.77734375 -0.015625 C3.72738281 -0.00015625 4.67742187 0.0153125 5.65625 0.03125 C6.60628906 0.01578125 7.55632812 0.0003125 8.53515625 -0.015625 C9.90994141 -0.00789063 9.90994141 -0.00789063 11.3125 0 C12.56256836 0.00676758 12.56256836 0.00676758 13.83789062 0.01367188 C17.11068742 0.74432996 18.22221276 1.7960935 20.15625 4.53125 C20.5544795 7.23319958 20.71825004 9.52039572 20.6875 12.21875 C20.6913269 12.95826904 20.69515381 13.69778809 20.69909668 14.4597168 C20.70181271 16.0197079 20.69447292 17.57974478 20.67773438 19.13964844 C20.65631673 21.52382186 20.67754263 23.90498249 20.703125 26.2890625 C20.70048166 27.8072983 20.69535656 29.32553223 20.6875 30.84375 C20.69559692 31.55426514 20.70369385 32.26478027 20.71203613 32.99682617 C20.64935954 36.31488114 20.36030128 38.24267635 18.42578125 40.97851562 C15.80864484 42.76906936 14.45756374 43.04547336 11.3125 43.0625 C10.39597656 43.06765625 9.47945313 43.0728125 8.53515625 43.078125 C7.58511719 43.06265625 6.63507813 43.0471875 5.65625 43.03125 C4.23119141 43.05445312 4.23119141 43.05445312 2.77734375 43.078125 C1.40255859 43.07039063 1.40255859 43.07039063 0 43.0625 C-0.83337891 43.05798828 -1.66675781 43.05347656 -2.52539062 43.04882812 C-5.79818742 42.31817004 -6.90971276 41.2664065 -8.84375 38.53125 C-9.2419795 35.82930042 -9.40575004 33.54210428 -9.375 30.84375 C-9.3788269 30.10423096 -9.38265381 29.36471191 -9.38659668 28.6027832 C-9.38931271 27.0427921 -9.38197292 25.48275522 -9.36523438 23.92285156 C-9.34381673 21.53867814 -9.36504263 19.15751751 -9.390625 16.7734375 C-9.38798166 15.2552017 -9.38285656 13.73696777 -9.375 12.21875 C-9.38309692 11.50823486 -9.39119385 10.79771973 -9.39953613 10.06567383 C-9.33685954 6.74761886 -9.04780128 4.81982365 -7.11328125 2.08398438 C-4.49614484 0.29343064 -3.14506374 0.01702664 0 0 Z M3.15625 10.53125 C3.15625 17.79125 3.15625 25.05125 3.15625 32.53125 C4.80625 32.53125 6.45625 32.53125 8.15625 32.53125 C8.15625 25.27125 8.15625 18.01125 8.15625 10.53125 C6.50625 10.53125 4.85625 10.53125 3.15625 10.53125 Z " fill="#000000" transform="translate(267.84375,18.46875)"/>
<path d="M0 0 C7.92 0 15.84 0 24 0 C24 3.3 24 6.6 24 10 C19.71 10 15.42 10 11 10 C11 12.64 11 15.28 11 18 C14.96 18 18.92 18 23 18 C23 21.63 23 25.26 23 29 C19.04 29 15.08 29 11 29 C11 33.29 11 37.58 11 42 C7.37 42 3.74 42 0 42 C0 28.14 0 14.28 0 0 Z " fill="#000000" transform="translate(292,19)"/>
</svg>
